<?xml version="1.0" standalone="no"?>
<!DOCTYPE svg PUBLIC "-//W3C//DTD SVG 20010904//EN"
 "http://www.w3.org/TR/2001/REC-SVG-20010904/DTD/svg10.dtd">
<svg version="1.0" xmlns="http://www.w3.org/2000/svg"
 width="512.000000pt" height="512.000000pt" viewBox="0 0 512.000000 512.000000"
 preserveAspectRatio="xMidYMid meet">
<metadata>
Created by potrace 1.14, written by Peter Selinger 2001-2017
</metadata>
<g transform="translate(0.000000,512.000000) scale(0.100000,-0.100000)"
fill="#000000" stroke="none">
<path d="M0 3810 c0 -1041 3 -1310 13 -1310 8 0 8 -3 2 -8 -6 -4 -11 -18 -12
-32 -1 -14 1 -19 4 -12 3 6 9 9 14 6 6 -3 17 0 26 8 15 12 15 11 3 -12 -12
-23 -12 -24 3 -11 9 7 26 11 37 8 11 -3 18 -1 15 3 -7 11 31 23 45 15 5 -3 10
-1 10 4 0 14 -57 14 -65 1 -9 -14 -22 -12 -28 3 -4 10 8 14 42 16 25 1 61 6
79 12 18 6 36 8 39 5 4 -3 -2 -6 -13 -6 -16 0 -16 -2 -4 -10 9 -5 19 -5 26 1
14 12 46 1 41 -14 -5 -15 50 -60 65 -54 8 3 6 6 -4 6 -10 1 -18 5 -18 10 0 13
16 22 24 14 3 -4 15 -7 26 -8 11 -1 18 1 15 3 -3 3 2 16 11 30 10 15 11 21 3
17 -8 -5 -10 -4 -5 3 11 19 26 14 26 -8 0 -11 -4 -20 -10 -20 -5 0 -10 -5 -10
-12 0 -6 3 -9 6 -5 9 8 33 -16 26 -27 -3 -5 0 -6 7 -2 7 5 9 12 3 19 -12 15
-11 47 1 47 5 0 7 -6 4 -14 -3 -8 1 -20 9 -27 12 -10 13 -9 7 7 -6 17 -5 18
12 4 11 -9 16 -10 11 -2 -4 6 -2 12 3 12 6 0 11 -9 11 -21 0 -11 4 -17 10 -14
5 3 10 1 10 -4 0 -14 37 -14 46 0 4 8 0 9 -15 4 -25 -8 -31 19 -6 29 8 3 15 0
15 -6 0 -7 6 -6 16 3 13 10 17 10 26 -2 7 -11 9 -9 5 9 -3 12 -1 20 4 16 13
-7 11 -51 -2 -60 -6 -3 -16 0 -21 7 -8 11 -9 10 -5 -3 3 -9 1 -18 -6 -21 -6
-2 -3 -6 7 -10 10 -4 15 -3 11 3 -5 9 7 14 27 12 3 -1 12 6 20 15 9 12 9 15 0
9 -6 -4 -12 -3 -12 2 0 6 7 13 16 16 8 3 12 2 9 -4 -3 -6 0 -10 8 -10 25 0 28
14 5 26 -22 13 -23 13 -2 11 12 0 27 -10 34 -20 9 -15 9 -18 -2 -11 -7 4 -10
4 -6 0 4 -5 3 -18 -2 -31 -7 -20 -6 -22 11 -18 11 3 22 9 25 14 3 5 -2 6 -12
2 -14 -5 -15 -3 -3 18 7 14 14 19 17 11 2 -6 11 -12 20 -12 12 0 13 3 4 12
-13 13 -16 29 -4 26 4 -1 18 2 32 6 24 8 24 9 5 17 -17 7 -18 8 -2 8 10 1 20
-5 23 -13 3 -8 14 -13 24 -11 14 3 17 -1 13 -12 -4 -11 -2 -14 5 -9 7 4 12 1
12 -7 0 -22 -30 -16 -31 7 0 21 -1 21 -8 1 l-8 -20 -5 20 c-5 19 -6 19 -7 -1
-1 -24 16 -35 45 -29 11 2 26 4 34 5 10 1 11 3 3 7 -18 7 -16 33 3 33 8 0 12
-4 9 -10 -3 -5 -3 -10 0 -10 9 0 31 23 34 35 4 14 13 23 11 10 -1 -6 -2 -25
-1 -42 1 -28 4 -32 25 -31 14 1 22 6 20 10 -3 4 -11 5 -19 1 -11 -4 -15 2 -15
20 0 26 16 44 28 32 3 -3 0 -11 -8 -16 -13 -9 -13 -10 0 -6 8 2 21 -3 28 -12
11 -14 11 -14 5 3 -5 15 -3 18 9 14 8 -4 15 -1 15 7 0 7 -8 10 -19 7 -12 -3
-18 1 -18 12 0 9 6 13 14 10 8 -3 17 -1 21 5 3 6 2 11 -4 11 -5 0 -9 9 -8 20
2 33 23 22 24 -13 2 -76 3 -82 12 -69 7 11 9 11 14 -2 4 -9 1 -16 -4 -16 -7 0
-4 -11 5 -25 9 -14 14 -30 11 -35 -3 -6 -1 -10 4 -10 6 0 10 -3 9 -7 -5 -21
91 -325 106 -335 6 -4 8 -8 4 -8 -9 0 60 -164 72 -168 5 -2 6 -10 3 -18 -3 -8
0 -14 6 -14 7 0 7 -7 -1 -25 -6 -14 -18 -25 -26 -25 -19 0 -292 -278 -292
-297 0 -7 -6 -13 -14 -13 -8 0 -29 -20 -47 -45 -18 -25 -36 -45 -40 -45 -4 0
-16 -14 -26 -30 -9 -17 -23 -30 -30 -30 -7 0 -13 -7 -13 -15 0 -9 -7 -18 -15
-21 -8 -4 -12 -10 -9 -15 3 -5 -6 -14 -20 -21 -14 -6 -26 -17 -26 -25 0 -7 -7
-16 -15 -19 -8 -4 -15 -12 -15 -20 0 -8 -7 -14 -15 -14 -9 0 -20 -12 -25 -26
-6 -14 -19 -28 -30 -31 -11 -3 -20 -9 -20 -13 0 -5 -9 -12 -21 -15 -11 -4 -18
-13 -16 -19 5 -11 -56 -50 -67 -43 -1 1 -10 -4 -19 -12 -10 -7 -17 -10 -17 -5
0 5 -4 3 -8 -3 -4 -7 -17 -14 -27 -16 -11 -2 -31 -9 -45 -15 -21 -9 -51 -21
-70 -27 -3 -1 -13 -5 -22 -8 -62 -24 -74 -27 -104 -30 -12 -2 -29 -9 -38 -16
-9 -7 -16 -10 -16 -5 0 4 -5 3 -12 -4 -7 -7 -23 -12 -36 -12 -13 0 -37 -9 -53
-21 l-29 -20 0 -231 c0 -227 0 -230 19 -207 10 13 21 34 25 47 4 12 11 20 16
17 5 -3 11 8 15 24 7 34 32 48 38 23 3 -12 6 -9 11 11 5 15 13 27 20 27 6 0
24 12 39 26 16 14 31 23 34 20 3 -3 12 -1 19 5 9 7 14 4 20 -13 l7 -23 8 23
c5 12 14 22 21 21 10 0 10 -2 1 -6 -7 -2 -13 -9 -13 -14 0 -6 5 -7 10 -4 6 4
10 -5 10 -21 0 -26 0 -26 25 -10 14 9 25 12 25 7 0 -11 70 -9 87 2 7 5 13 5
13 1 0 -3 11 1 24 10 18 12 26 12 29 3 4 -8 6 -8 6 0 1 6 10 9 21 6 12 -3 22
1 26 10 4 10 14 14 31 11 16 -3 22 -1 18 6 -11 18 18 6 36 -14 16 -20 17 -20
24 3 4 14 12 20 21 17 8 -3 23 4 34 16 11 12 20 18 20 14 0 -5 7 -3 15 4 12
10 15 9 16 -6 0 -14 3 -11 11 9 12 33 28 36 28 5 0 -19 2 -20 10 -8 8 12 10
11 10 -5 0 -31 35 -29 50 3 12 25 14 25 18 7 2 -11 15 -33 29 -49 16 -19 22
-35 17 -48 -4 -14 -2 -18 5 -14 6 4 12 1 12 -6 4 -42 7 -58 13 -82 4 -18 3
-25 -4 -21 -5 3 -11 0 -12 -7 0 -7 -2 -17 -2 -23 -1 -5 -5 -15 -8 -21 -4 -6 0
-23 8 -39 14 -27 14 -28 -3 -13 -15 14 -20 14 -31 2 -6 -7 -12 -22 -12 -33 0
-14 -5 -19 -15 -15 -10 4 -15 0 -15 -15 0 -12 -5 -21 -11 -21 -7 0 -9 -10 -7
-25 4 -20 2 -23 -13 -15 -15 9 -16 6 -10 -18 7 -26 39 -40 33 -14 -1 8 2 11 7
7 12 -7 33 29 23 40 -4 3 0 5 8 3 9 -2 14 4 14 15 -2 20 7 22 25 5 10 -11 11
-9 5 6 -5 12 -2 23 8 30 8 6 25 31 37 55 23 45 32 47 36 9 4 -38 5 -39 13 -34
4 2 16 -24 26 -60 10 -35 23 -64 28 -64 5 0 7 -4 3 -9 -3 -5 -1 -12 5 -16 6
-4 8 -11 5 -16 -4 -5 -1 -9 5 -9 6 0 10 -8 9 -18 -3 -32 1 -53 9 -48 5 3 16
-8 26 -25 l17 -30 280 1 c153 1 279 3 279 6 0 3 -27 49 -59 103 -77 127 -94
168 -75 175 21 8 84 -53 123 -121 19 -32 50 -82 69 -110 l34 -53 190 1 191 0
-79 28 c-43 15 -96 36 -117 47 l-38 20 23 21 c13 11 86 56 163 98 77 42 158
89 180 104 103 70 242 170 266 193 8 7 44 38 79 68 36 29 95 83 133 120 37 36
81 72 98 79 16 8 28 20 25 27 -3 7 2 18 10 24 10 9 14 9 14 1 0 -6 -5 -11 -12
-11 -6 0 -9 -2 -6 -5 8 -9 58 17 52 27 -3 4 -11 5 -17 2 -7 -4 12 16 41 44 45
43 51 54 40 66 -11 11 -15 11 -26 -5 -7 -11 -18 -16 -24 -13 -7 5 -9 1 -5 -9
3 -9 1 -19 -5 -23 -6 -4 -8 -3 -5 2 3 6 2 16 -4 24 -7 12 -9 12 -9 -4 0 -16
-2 -17 -17 -5 -13 11 -15 11 -9 1 5 -9 3 -13 -5 -11 -17 3 -51 -11 -62 -25 -5
-7 -7 -2 -4 11 4 20 3 21 -22 10 -14 -6 -29 -16 -33 -22 -4 -6 -8 -1 -9 10 l0
20 -9 -20 c-5 -11 -9 -15 -9 -10 -1 13 -41 14 -41 2 0 -5 -7 -4 -15 3 -8 6
-19 9 -25 5 -5 -3 -10 -1 -10 5 0 6 -4 8 -10 5 -6 -3 -10 -1 -10 5 0 6 -5 8
-10 5 -6 -4 -7 -11 -4 -17 4 -7 2 -8 -4 -4 -9 5 -9 13 -1 29 12 22 11 22 -9 4
-14 -13 -21 -15 -24 -6 -3 8 -10 6 -22 -7 -18 -18 -18 -17 -11 6 7 23 7 24
-10 10 -17 -14 -18 -13 -12 4 6 16 5 17 -8 6 -12 -10 -15 -10 -15 0 0 10 -3
10 -14 1 -11 -9 -17 -8 -28 7 -21 29 -37 35 -31 12 3 -12 0 -20 -6 -20 -7 0
-9 5 -6 10 6 9 -7 14 -31 11 -6 -1 -23 12 -37 29 -15 16 -22 30 -16 30 6 0 3
7 -5 16 -9 8 -17 30 -17 47 -1 18 -2 41 -3 52 -1 11 6 27 14 35 9 8 10 11 3 6
-8 -5 -13 -4 -13 4 0 8 -5 9 -13 4 -7 -5 -4 -1 6 9 15 13 16 17 4 17 -8 0 -17
7 -21 15 -3 8 -1 15 3 15 5 0 12 -6 14 -12 4 -10 6 -10 6 0 1 6 7 12 14 12 6
0 24 6 39 14 20 11 28 11 32 3 3 -9 5 -8 5 1 1 6 8 12 17 12 8 0 13 3 11 8 -3
4 7 8 21 9 76 6 92 9 92 16 0 4 11 7 25 7 14 0 25 5 25 10 0 7 6 7 19 0 14 -7
22 -7 27 2 5 7 3 8 -6 3 -9 -5 -11 -4 -6 4 6 9 11 9 22 0 11 -9 15 -8 20 5 3
9 10 16 16 16 5 0 6 -5 3 -10 -4 -6 9 -2 28 9 19 11 38 17 41 14 3 -4 6 -1 6
6 0 8 6 11 16 7 11 -4 18 1 21 15 3 11 9 16 12 11 3 -6 19 1 36 15 17 14 23
22 15 18 -8 -3 -4 3 9 14 19 17 20 21 6 21 -9 0 -26 -5 -38 -12 -19 -10 -20
-9 -9 4 11 13 9 17 -12 22 -13 3 -33 3 -43 -1 -10 -3 11 17 47 44 36 28 102
89 147 136 45 46 86 88 92 92 7 4 19 -10 30 -35 16 -35 20 -39 32 -27 8 7 20
12 27 9 7 -2 12 6 12 22 0 13 4 27 10 31 24 15 -35 89 -86 105 -18 6 -52 11
-76 12 -26 0 -65 11 -98 28 -30 15 -95 42 -145 59 -100 36 -122 35 -213 -5
-62 -27 -94 -26 -174 7 -26 10 -69 25 -97 32 l-49 13 95 87 c52 48 99 87 105
87 6 0 8 -27 5 -68 -4 -68 5 -116 28 -140 28 -31 110 42 103 90 -2 13 -9 22
-15 21 -7 -2 -10 7 -7 23 3 14 1 23 -5 20 -5 -3 -11 4 -14 15 -3 12 -10 18
-16 14 -7 -4 -11 8 -11 33 0 35 6 44 46 77 25 20 47 35 50 32 3 -3 22 1 41 9
33 14 37 14 59 -7 21 -20 26 -21 76 -9 68 16 101 37 161 99 47 49 49 50 73 34
14 -8 41 -34 61 -57 24 -27 30 -32 18 -13 -17 29 -12 54 5 27 6 -9 10 -10 10
-3 0 6 -4 15 -10 18 -5 3 -10 12 -10 18 0 8 3 7 9 -2 5 -7 13 -11 19 -7 5 3
22 -4 36 -15 26 -20 26 -20 -5 28 -18 26 -53 75 -78 108 -26 33 -54 73 -64 88
-10 15 -22 25 -27 22 -6 -3 -7 0 -4 8 6 17 -21 43 -30 28 -3 -5 -1 -22 5 -38
19 -48 28 -136 16 -158 -6 -11 -10 -27 -9 -36 2 -10 -12 -27 -30 -40 l-33 -23
25 29 c19 21 21 27 8 22 -10 -4 -18 -2 -18 3 0 5 -7 6 -17 3 -12 -5 -14 -3 -8
7 6 10 4 12 -11 5 -10 -4 -27 -7 -37 -7 -9 0 -15 -3 -12 -9 4 -5 1 -9 -4 -9
-22 0 -10 30 14 36 48 12 25 21 -46 17 -53 -3 -80 -9 -110 -28 -21 -14 -39
-21 -39 -16 0 5 -8 12 -17 16 -15 5 -16 4 -5 -6 14 -15 16 -33 3 -25 -5 3 -12
-1 -15 -10 -3 -8 -10 -12 -16 -9 -5 3 -10 0 -10 -7 0 -8 -5 -7 -17 4 -13 14
-14 20 -4 32 10 12 7 13 -24 6 -19 -4 -35 -7 -35 -6 0 0 4 15 9 32 9 31 8 32
-23 30 -27 -1 -34 4 -53 44 -17 33 -22 61 -21 102 1 32 -4 63 -10 71 -10 12
-9 16 8 20 11 3 20 11 20 19 0 10 -3 9 -10 -2 -9 -13 -10 -13 -11 0 0 8 -2 22
-3 30 -2 8 2 36 9 63 6 26 8 47 3 47 -5 0 -6 6 -1 13 4 6 8 130 8 274 l0 261
48 46 c52 49 83 64 99 48 7 -7 18 -6 34 5 32 20 31 42 -1 38 -32 -3 -43 11
-15 20 24 8 54 -13 58 -40 2 -11 8 -21 12 -23 5 -2 5 -14 0 -28 -6 -15 -6 -34
1 -51 13 -36 68 -93 90 -93 9 0 28 18 43 40 14 22 28 40 30 40 1 0 2 -19 2
-42 -1 -40 1 -43 24 -41 86 7 104 6 108 -5 2 -7 8 -10 13 -6 5 3 9 -2 9 -10 0
-16 -24 -21 -78 -16 -12 1 -22 -4 -22 -10 0 -7 8 -9 20 -5 18 6 21 3 20 -20 0
-3 5 -11 12 -19 9 -10 15 -10 23 -2 5 6 9 9 7 7 -3 -6 57 -31 72 -30 6 0 -2 7
-19 14 -35 17 -10 20 31 5 17 -7 31 -7 37 -1 5 5 21 6 40 0 39 -11 125 -11
152 1 16 7 12 9 -20 10 -22 1 -34 4 -27 7 6 2 12 9 12 14 0 4 -7 6 -15 3 -8
-4 -15 -1 -15 5 0 6 -7 11 -15 11 -8 0 -15 -3 -15 -7 0 -12 -59 -8 -71 4 -7 7
-4 15 7 24 16 12 17 12 12 -2 -6 -15 -4 -15 23 -2 25 12 32 13 46 1 14 -11 16
-11 8 1 -6 11 -2 13 19 9 22 -4 26 -2 21 12 -4 14 8 22 67 41 40 12 98 33 130
46 l56 22 71 -18 c39 -10 69 -15 66 -11 -6 9 19 20 46 20 19 0 19 1 -1 22 -11
12 -18 28 -16 35 3 7 0 15 -6 19 -7 4 -8 3 -4 -4 4 -7 2 -12 -4 -12 -7 0 -9 8
-5 20 6 20 5 21 -37 24 -7 1 -16 4 -19 9 -8 11 2 68 11 62 5 -3 6 -15 4 -28
-4 -22 -4 -22 6 1 13 31 3 45 -27 37 -18 -4 -24 -2 -21 7 3 7 16 14 29 15 74
4 76 5 44 12 -25 6 -18 9 48 20 52 8 77 17 77 26 0 8 -5 17 -11 21 -8 4 -7 9
2 16 10 7 9 8 -5 4 -11 -4 -26 0 -37 10 -10 9 -23 13 -28 9 -6 -3 -11 -1 -11
4 0 6 -12 11 -26 11 -14 0 -23 -3 -21 -7 8 -12 -175 -5 -296 12 -21 3 -36 2
-33 -3 7 -11 -134 -6 -239 9 -44 6 -111 12 -149 14 -45 1 -71 7 -77 16 -7 11
-9 10 -9 -3 0 -10 -4 -18 -10 -18 -5 0 -7 8 -4 18 5 14 3 14 -10 -2 -9 -11
-16 -14 -16 -8 0 7 -4 12 -10 12 -5 0 -10 -6 -10 -14 0 -8 -4 -17 -9 -20 -5
-4 -7 3 -4 14 3 11 1 20 -4 20 -15 0 -40 -84 -35 -122 2 -24 -2 -45 -12 -60
-11 -15 -16 -18 -16 -7 0 8 3 19 7 25 5 5 0 1 -10 -9 -9 -11 -17 -25 -17 -33
0 -8 -9 -14 -22 -13 -16 1 -18 3 -6 6 9 2 16 12 15 21 -1 14 -10 16 -64 14
-68 -4 -95 8 -87 36 5 15 4 15 -6 -1 -10 -15 -13 -15 -26 -3 -8 8 -14 19 -14
24 0 12 -30 26 -49 23 -13 -2 -13 0 -2 13 10 12 11 16 1 16 -8 0 -10 9 -6 28
4 15 3 23 -1 17 -19 -24 -35 -16 -31 14 2 17 1 28 -4 25 -4 -3 -8 -12 -8 -21
0 -9 -2 -14 -4 -12 -3 3 -1 31 3 64 9 64 12 65 -41 -7 l-17 -23 6 25 c3 19 2
21 -5 11 -9 -13 -13 -13 -28 0 -11 9 -15 9 -10 2 5 -9 -2 -13 -24 -13 -21 0
-29 -4 -24 -12 5 -7 3 -8 -5 -3 -9 5 -6 14 11 33 13 14 17 22 9 17 -11 -6 -13
-4 -8 9 4 10 3 15 -3 11 -6 -3 -10 -1 -10 5 0 6 -5 8 -11 5 -7 -5 -4 -14 8
-28 10 -11 12 -17 4 -12 -8 4 -17 2 -22 -6 -13 -21 -12 37 2 64 9 19 7 18 -10
-3 -11 -14 -21 -29 -21 -34 0 -4 -7 -5 -16 -2 -15 6 -15 4 -3 -11 11 -15 11
-16 -1 -6 -9 9 -19 9 -34 1 -20 -10 -20 -9 2 11 12 12 22 26 22 32 0 6 4 7 10
4 6 -4 7 1 3 11 -6 15 -7 15 -20 -2 -8 -10 -19 -18 -24 -16 -6 1 -8 -2 -4 -8
3 -5 -1 -10 -9 -10 -9 0 -16 -5 -16 -11 0 -5 -5 -7 -11 -4 -7 5 -5 15 6 32 16
24 16 24 -4 13 -16 -8 -21 -8 -21 2 0 9 -3 9 -8 2 -4 -5 -17 -10 -29 -10 -17
0 -19 3 -11 14 9 11 13 11 21 0 6 -9 7 -8 3 5 -3 10 -6 24 -6 30 0 7 -4 6 -10
-3 -8 -13 -10 -13 -10 2 0 9 5 20 10 23 6 3 10 12 10 18 0 7 -4 6 -10 -3 -5
-8 -10 -10 -10 -5 -1 6 -6 -1 -12 -15 -6 -15 -12 -20 -15 -12 -3 7 2 23 10 35
16 25 5 62 -21 72 -13 5 -12 2 2 -14 14 -16 16 -23 6 -38 -11 -17 -11 -17 -6
0 3 10 -1 25 -9 34 -13 12 -13 18 -3 31 11 13 10 14 -12 8 -17 -5 -21 -4 -11
2 8 6 11 17 7 28 -6 16 -9 16 -17 4 -8 -12 -9 -11 -7 5 3 17 12 20 71 23 88 4
87 18 -2 17 -68 -1 -69 -1 -55 20 7 11 19 50 27 85 7 36 19 75 25 87 7 12 9
28 6 36 -3 8 -1 18 5 22 7 4 9 -1 5 -12 -5 -16 -4 -16 10 1 11 14 31 21 64 22
26 2 61 8 77 15 40 16 42 17 183 31 67 6 122 16 122 20 0 5 10 7 23 5 12 -2
16 -2 10 0 -14 5 -18 24 -5 21 11 -3 112 12 161 24 32 8 40 13 27 18 -12 4 6
13 54 29 40 12 70 24 68 26 -2 3 -33 -5 -68 -16 -35 -11 -68 -18 -74 -15 -6 3
-6 5 2 5 15 1 93 34 134 56 14 8 35 15 45 15 10 0 23 4 29 9 5 5 20 11 34 13
15 2 24 9 22 18 -1 10 3 8 13 -5 9 -11 25 -30 35 -43 11 -12 20 -24 20 -26 0
-2 -23 -6 -51 -10 -28 -4 -49 -9 -46 -12 3 -3 33 0 66 6 85 15 190 17 199 4
10 -16 52 -36 52 -26 0 6 17 4 38 -4 20 -7 73 -14 117 -15 63 -1 73 -3 50 -10
-23 -6 -16 -7 25 -4 40 3 51 2 40 -6 -12 -8 -9 -10 13 -6 21 3 27 1 23 -9 -3
-8 1 -14 9 -14 8 0 40 -34 71 -75 54 -72 86 -104 46 -47 -32 46 -34 52 -18 46
9 -3 16 -1 16 5 0 5 17 1 38 -11 l37 -22 -20 24 c-17 21 -17 22 -2 10 11 -8
21 -10 25 -4 11 15 55 16 46 1 -5 -7 0 -6 10 3 26 20 87 24 79 4 -3 -9 2 -14
13 -15 12 0 14 -3 6 -6 -10 -4 -10 -8 -1 -19 7 -8 9 -17 6 -20 -6 -6 27 -102
49 -146 8 -15 15 -31 15 -35 0 -5 6 -14 12 -22 10 -12 8 -12 -12 -2 -23 13
-23 12 4 -24 23 -29 26 -38 15 -45 -10 -6 -11 -12 -3 -22 15 -18 58 -169 92
-328 33 -151 60 -233 95 -295 22 -40 23 -51 19 -166 -4 -168 -12 -210 -99
-539 -14 -52 -26 -125 -28 -161 -2 -37 -5 -70 -8 -75 -12 -22 -17 -63 -8 -69
9 -6 14 8 11 28 0 4 4 7 10 7 6 0 9 -7 5 -15 -3 -9 0 -15 9 -15 8 0 15 -5 15
-11 0 -5 -6 -7 -12 -3 -7 4 -10 3 -5 -1 10 -11 48 -14 41 -3 -3 4 2 5 10 2 9
-3 13 -10 10 -15 -3 -5 0 -9 6 -9 6 0 9 8 6 18 -5 13 0 18 16 19 18 2 19 0 8
-7 -13 -8 -13 -11 0 -22 8 -7 11 -9 7 -4 -7 10 31 42 39 33 3 -3 -4 -15 -15
-26 -25 -25 -30 -61 -6 -41 8 7 13 16 10 20 -3 5 4 11 14 15 12 4 18 12 14 21
-3 9 2 14 16 14 12 0 21 5 21 12 0 6 3 8 7 4 5 -4 -1 -14 -11 -22 -11 -8 -14
-14 -8 -14 7 0 17 -10 22 -22 8 -21 9 -22 11 -3 1 11 1 23 0 28 0 4 9 7 21 7
21 0 21 0 2 -14 -10 -8 -16 -18 -12 -22 5 -4 16 2 25 12 10 11 26 18 36 16 10
-2 24 1 32 8 10 8 15 8 21 -1 4 -8 3 -9 -4 -5 -8 5 -12 -1 -12 -16 0 -18 2
-20 10 -8 9 14 11 13 14 -9 0 -5 5 -13 10 -18 6 -5 6 -2 1 6 -6 11 -4 13 9 8
14 -5 17 -3 12 8 -6 17 11 20 34 5 13 -8 12 -10 -4 -10 -11 0 -17 -3 -13 -6 3
-4 14 -3 24 0 17 7 17 8 0 21 -16 11 -16 13 -2 19 9 3 13 2 10 -4 -8 -14 18
-13 32 1 6 6 9 18 6 27 -4 9 -1 13 7 10 7 -2 14 -12 16 -22 3 -24 10 -30 24
-21 9 6 9 9 0 15 -8 5 -5 9 9 13 12 3 19 1 15 -4 -3 -5 -1 -9 5 -9 11 0 26
-38 23 -60 -2 -9 0 -11 5 -4 4 6 16 13 25 17 13 5 17 2 15 -11 -1 -9 -6 -22
-9 -28 -4 -6 -1 -11 7 -11 8 0 14 3 13 6 -2 20 4 31 17 31 22 0 18 27 -4 40
-16 8 -22 6 -29 -7 -9 -14 -13 -15 -26 -4 -9 7 -16 19 -15 25 0 7 2 6 6 -1 2
-7 12 -13 20 -13 12 0 13 3 3 15 -6 8 -10 22 -7 32 4 14 5 14 6 -4 1 -21 21
-44 21 -25 0 13 80 20 87 8 4 -5 1 -6 -7 -1 -10 6 -12 4 -7 -8 3 -10 2 -17 -3
-17 -6 0 -10 5 -10 10 0 6 -12 10 -27 9 l-28 -1 25 -7 c16 -5 24 -13 22 -25
-3 -15 0 -15 17 -4 12 7 21 16 21 19 0 4 9 9 21 12 12 3 18 10 14 16 -4 7 0 8
10 5 14 -6 14 -8 -2 -20 -15 -11 -15 -14 -3 -15 8 -1 18 -1 23 0 4 1 5 -11 2
-26 -6 -25 -5 -26 8 -11 8 10 16 15 19 13 12 -13 67 -23 65 -13 -1 6 4 13 12
16 9 3 11 0 6 -8 -5 -8 0 -11 16 -8 17 2 23 -1 21 -12 -2 -8 0 -11 4 -7 11 11
14 38 3 31 -5 -3 -9 0 -9 7 0 7 10 9 30 6 22 -5 28 -3 24 8 -3 8 -13 16 -22
18 -10 3 -5 4 11 4 16 -1 26 -6 23 -13 -2 -6 0 -17 5 -25 6 -10 9 -10 9 -1 0
6 9 12 20 12 20 0 20 7 20 1330 l0 1330 -675 0 c-670 -1 -675 -1 -665 -20 11
-20 10 -20 -25 0 -20 11 -50 20 -68 20 l-32 -1 31 -13 c33 -15 58 -41 28 -29
-11 4 -15 3 -11 -5 4 -6 -31 3 -79 19 -47 16 -93 29 -102 28 -19 -1 64 -42 88
-44 9 -1 45 -18 80 -39 36 -20 54 -34 40 -31 -14 4 -44 18 -67 31 -23 13 -48
24 -56 24 -8 0 -48 12 -89 26 -40 14 -83 27 -95 29 -39 6 -35 -13 4 -25 21 -7
43 -17 48 -22 7 -7 2 -7 -15 -2 -14 4 -35 8 -47 9 -13 0 -23 3 -23 7 0 5 -3 7
-7 7 -33 -5 -46 16 -15 24 9 3 -745 5 -1675 6 l-1693 1 0 -1310z m3441 1246
c76 -14 204 -66 181 -74 -7 -2 -18 -2 -25 1 -7 2 -14 4 -17 4 -3 0 -25 10 -50
23 -25 13 -61 24 -80 25 -36 3 -127 34 -100 34 8 0 49 -6 91 -13z m137 -2 c52
-15 87 -32 80 -40 -2 -1 -42 10 -88 26 -91 30 -85 41 8 14z m-158 -36 c25 -11
53 -20 63 -21 11 -1 31 -16 46 -33 16 -17 34 -34 42 -38 8 -3 3 -4 -11 -1 -14
3 -30 7 -35 8 -6 1 -29 12 -52 24 -22 12 -43 19 -46 17 -3 -3 -32 8 -64 25
-60 32 -88 38 -98 21 -3 -5 1 -10 9 -10 8 0 25 -10 36 -22 16 -17 20 -19 15
-5 -8 19 6 16 55 -11 l25 -14 -27 5 c-37 6 -35 1 10 -22 20 -11 53 -34 72 -51
l35 -30 -30 6 c-16 3 -40 13 -52 20 -21 13 -23 13 -23 -3 0 -15 -1 -15 -12 -1
-7 9 -53 41 -101 71 -71 44 -84 57 -69 61 11 4 26 5 33 4 8 -2 13 2 12 7 -1 6
12 12 30 13 17 2 33 5 35 7 7 7 50 -5 102 -27z m-225 -53 c11 -4 28 -10 38
-11 25 -5 88 -47 116 -78 36 -38 19 -42 -18 -4 -18 18 -35 33 -39 34 -4 0 -20
6 -35 12 -16 7 -33 9 -39 6 -7 -4 -8 -2 -4 4 5 8 -1 12 -14 12 -12 0 -18 5
-15 10 3 6 -1 10 -9 10 -9 0 -16 5 -16 11 0 5 3 8 8 6 4 -2 16 -8 27 -12z
m-90 -5 c3 -5 2 -10 -4 -10 -5 0 -13 5 -16 10 -3 6 -2 10 4 10 5 0 13 -4 16
-10z m61 -26 c19 -15 19 -15 -1 -6 -11 5 -27 12 -35 15 -13 5 -13 6 1 6 8 1
24 -6 35 -15z m323 -5 c18 -11 31 -22 28 -25 -5 -6 -87 33 -87 41 0 11 27 4
59 -16z m-584 -39 c-3 -5 -11 -10 -16 -10 -6 0 -7 5 -4 10 3 6 11 10 16 10 6
0 7 -4 4 -10z m1440 0 c3 -5 -1 -10 -9 -10 -8 0 -18 5 -21 10 -3 6 1 10 9 10
8 0 18 -4 21 -10z m42 -6 c-3 -3 -12 -4 -19 -1 -8 3 -5 6 6 6 11 1 17 -2 13
-5z m-1130 -26 c6 -5 17 -8 25 -7 29 4 42 -1 32 -11 -11 -11 -99 12 -119 32
-13 12 45 -1 62 -14z m30 16 c-3 -3 -12 -4 -19 -1 -8 3 -5 6 6 6 11 1 17 -2
13 -5z m138 -24 c10 -11 16 -20 13 -20 -3 0 -13 9 -23 20 -10 11 -16 20 -13
20 3 0 13 -9 23 -20z m-650 -15 c-16 -13 -34 -24 -39 -25 -6 0 5 11 24 25 44
32 54 32 15 0z m1556 8 c13 -16 12 -17 -3 -4 -10 7 -18 15 -18 17 0 8 8 3 21
-13z m-1527 -15 c-50 -37 -60 -41 -24 -9 19 17 38 31 43 31 6 0 -3 -10 -19
-22z m1601 -16 c-3 -3 -11 0 -18 7 -9 10 -8 11 6 5 10 -3 15 -9 12 -12z m-75
-2 c0 -5 -2 -10 -4 -10 -3 0 -8 5 -11 10 -3 6 -1 10 4 10 6 0 11 -4 11 -10z
m70 -16 c0 -2 -7 -4 -15 -4 -8 0 -15 4 -15 10 0 5 7 7 15 4 8 -4 15 -8 15 -10z
m-1665 -14 c-3 -5 -12 -10 -18 -10 -7 0 -6 4 3 10 19 12 23 12 15 0z m1612 -6
c-3 -3 -12 -4 -19 -1 -8 3 -5 6 6 6 11 1 17 -2 13 -5z m63 -10 c0 -2 -11 -4
-25 -4 -14 0 -25 4 -25 9 0 4 11 6 25 3 14 -2 25 -6 25 -8z m-1301 -71 c-14
-16 2 -18 18 -2 7 7 13 7 17 1 3 -6 -7 -13 -24 -16 -16 -3 -44 -9 -61 -12 -22
-4 -29 -3 -25 5 4 6 14 11 22 11 8 0 23 5 34 12 18 12 18 13 2 33 -17 20 -17
20 5 1 18 -15 20 -22 12 -33z m-92 13 c-1 -6 11 -10 28 -9 25 2 27 1 10 -7
-31 -13 -43 -12 -54 8 -7 14 -6 19 4 19 8 0 13 -5 12 -11z m204 4 c19 -6 46
-22 60 -37 l24 -28 -25 21 c-27 23 -90 47 -99 39 -3 -4 1 -10 9 -15 8 -6 10
-10 4 -10 -5 0 -19 7 -30 16 -10 8 -13 13 -6 9 6 -3 12 -1 12 4 0 13 6 13 51
1z m66 -76 c-3 -3 -12 -4 -19 -1 -8 3 -5 6 6 6 11 1 17 -2 13 -5z m-607 -48
c0 -2 -9 -6 -20 -9 -11 -3 -18 -1 -14 4 5 9 34 13 34 5z m1660 -47 c0 -5 4 -8
9 -4 5 3 12 2 15 -3 2 -4 -4 -8 -14 -9 -10 -1 -21 5 -24 13 -3 8 -1 14 4 14 6
0 10 -5 10 -11z m46 -44 c18 -13 18 -14 -4 -8 -12 3 -25 9 -28 14 -8 14 10 11
32 -6z m-130 -51 c18 -14 18 -14 -6 -3 -31 14 -36 19 -24 19 6 0 19 -7 30 -16z
m84 -19 c0 -10 -16 -4 -40 16 l-25 20 33 -16 c17 -8 32 -18 32 -20z m-79 -72
c13 -16 12 -17 -3 -4 -17 13 -22 21 -14 21 2 0 10 -8 17 -17z m60 -30 c13 -16
12 -17 -3 -4 -10 7 -18 15 -18 17 0 8 8 3 21 -13z m-85 -115 l29 -33 -32 29
c-31 28 -38 36 -30 36 2 0 16 -15 33 -32z m-2245 -221 c-10 -9 -11 -8 -5 6 3
10 9 15 12 12 3 -3 0 -11 -7 -18z m2559 -391 c-28 -278 -53 -366 -172 -596
-101 -197 -193 -320 -280 -373 -36 -22 -36 -12 -4 80 13 37 46 140 75 228 48
151 54 164 106 224 31 35 63 70 71 78 7 8 14 18 14 23 0 5 11 20 24 33 13 13
29 34 36 47 16 30 23 159 10 180 -5 8 -10 11 -10 5 0 -5 -7 1 -16 13 -8 12
-13 26 -10 30 3 5 -1 9 -9 9 -8 0 -12 -4 -9 -9 9 -13 -3 -9 -20 8 -14 14 -12
19 22 53 20 21 47 51 59 67 14 18 20 22 16 10 -4 -13 -3 -17 5 -12 9 5 13 -8
14 -46 1 -29 3 -73 4 -98 1 -25 -3 -76 -8 -115 -5 -38 -10 -79 -12 -90 -1 -12
-5 -26 -9 -32 -4 -6 -3 -14 3 -18 5 -3 10 -1 10 5 0 6 9 31 20 54 14 33 22 82
30 194 5 82 14 163 20 178 11 27 12 28 22 10 8 -13 7 -54 -2 -140z m-1872 20
c-7 -8 -15 -12 -17 -11 -5 6 10 25 20 25 5 0 4 -6 -3 -14z m912 -16 c-14 -4
-29 -5 -34 -2 -14 8 27 20 44 14 11 -4 8 -8 -10 -12z m570 -25 c0 -5 -5 -3
-10 5 -5 8 -10 20 -10 25 0 6 5 3 10 -5 5 -8 10 -19 10 -25z m-520 15 c0 -5
-5 -10 -11 -10 -5 0 -7 5 -4 10 3 6 8 10 11 10 2 0 4 -4 4 -10z m-135 -110
c12 -20 -12 -41 -75 -66 -37 -14 -73 -25 -79 -23 -6 2 11 27 39 55 42 43 54
50 80 46 17 -2 32 -8 35 -12z m-320 -90 c3 -6 -1 -7 -9 -4 -18 7 -21 14 -7 14
6 0 13 -4 16 -10z m1057 -102 c-10 -42 -10 -41 -10 27 0 58 1 65 9 43 7 -18 7
-42 1 -70z m-2551 59 c-10 -9 -11 -8 -5 6 3 10 9 15 12 12 3 -3 0 -11 -7 -18z
m107 -2 c-6 -31 -2 -31 23 -2 l20 22 -6 -25 -7 -25 19 25 c23 31 39 35 69 15
21 -13 24 -14 24 -1 0 12 6 13 22 7 34 -12 33 -30 -4 -47 -32 -14 -32 -15 -5
-11 35 6 22 -8 -16 -17 -21 -5 -27 -3 -22 5 6 8 -11 9 -63 4 -63 -6 -71 -5
-74 12 -6 26 3 63 14 63 6 0 8 -11 6 -25z m1449 19 c-3 -3 -12 -4 -19 -1 -8 3
-5 6 6 6 11 1 17 -2 13 -5z m43 -16 c0 -4 -12 -8 -27 -8 -19 0 -24 3 -15 8 17
11 42 11 42 0z m-1520 -38 c0 -5 -7 -10 -16 -10 -8 0 -12 5 -9 10 3 6 10 10
16 10 5 0 9 -4 9 -10z m210 -51 c10 -13 95 -63 103 -61 11 3 9 -16 -3 -23 -5
-3 -10 -14 -10 -24 0 -10 -7 -24 -15 -31 -8 -7 -12 -17 -8 -23 3 -5 -2 -16
-11 -23 -9 -6 -18 -21 -19 -32 0 -11 -5 -18 -9 -16 -4 3 -8 -1 -8 -8 0 -18
-46 -129 -51 -124 -2 3 -4 -5 -5 -17 -1 -12 -8 -58 -17 -102 -8 -44 -18 -101
-22 -127 -3 -26 -11 -51 -17 -54 -7 -5 -8 -2 -3 7 5 8 4 10 0 6 -5 -4 -10 -15
-11 -23 -4 -29 -35 -83 -52 -93 -9 -5 -17 -13 -17 -18 0 -4 -3 -7 -7 -5 -5 1
-8 -7 -8 -17 0 -11 -10 -27 -22 -35 -12 -9 -19 -16 -15 -16 4 0 2 -6 -5 -14
-7 -7 -19 -11 -25 -9 -9 3 -13 -5 -14 -23 0 -16 -3 -23 -6 -16 -3 8 -11 5 -24
-10 l-19 -23 15 30 c8 17 15 39 15 50 -1 17 -3 16 -16 -7 -18 -34 -31 -35 -39
-5 -13 46 -28 67 -40 57 -9 -8 -11 -3 -9 17 2 16 1 20 -2 10 -3 -9 -9 -15 -14
-12 -5 3 -7 11 -4 18 3 8 0 24 -5 38 -8 21 -10 21 -11 4 0 -16 -2 -17 -9 -5
-6 8 -7 18 -4 22 2 5 -1 16 -9 25 -9 12 -9 15 0 9 7 -4 12 -2 12 8 0 8 -5 16
-12 18 -7 3 -12 23 -12 50 1 30 -3 45 -12 45 -7 0 -12 -3 -11 -6 1 -3 -2 -7
-8 -8 -5 -1 -9 8 -8 20 1 12 -1 16 -3 10 -3 -7 -9 -13 -13 -13 -12 0 -33 69
-25 81 4 8 3 9 -4 5 -13 -8 -45 61 -38 80 3 8 -1 11 -10 7 -13 -5 -18 8 -17
44 1 7 -3 11 -7 8 -4 -3 -10 5 -13 17 -4 13 -1 26 6 30 9 6 9 8 0 8 -18 0 -17
107 2 160 17 49 19 61 5 40 -9 -13 -11 -13 -19 -1 -6 9 -4 19 5 28 8 8 14 20
14 26 0 8 -4 7 -12 -1 -7 -7 -17 -12 -22 -12 -6 0 -2 7 8 15 14 11 23 12 32 4
7 -6 18 -8 25 -4 8 6 8 9 0 15 -6 3 3 7 21 8 111 5 177 4 293 -2 88 -4 125 -3
115 4 -17 11 -12 12 42 12 21 0 40 3 43 7 5 9 68 9 75 0z m2120 -726 c0 -8 5
-11 12 -7 7 4 8 3 4 -4 -9 -15 -26 -15 -26 -1 0 7 -8 18 -17 25 -16 12 -16 12
5 7 12 -3 22 -12 22 -20z m54 9 c3 -5 -1 -9 -9 -9 -8 0 -12 4 -9 9 3 4 7 8 9
8 2 0 6 -4 9 -8z m-3979 -12 c-3 -5 -10 -10 -16 -10 -5 0 -9 5 -9 10 0 6 7 10
16 10 8 0 12 -4 9 -10z m4023 -15 c-3 -3 -9 2 -12 12 -6 14 -5 15 5 6 7 -7 10
-15 7 -18z m-4072 0 c-8 -8 -18 -15 -22 -15 -3 0 -1 7 6 15 7 8 17 15 22 15 5
0 3 -7 -6 -15z m148 0 c-4 -8 -11 -12 -16 -9 -6 4 -5 10 3 15 19 12 19 11 13
-6z m46 -10 c5 3 12 0 16 -6 4 -7 3 -9 -4 -5 -6 3 -13 2 -16 -3 -4 -5 2 -12
11 -14 15 -4 14 -5 -3 -6 -17 -1 -21 5 -21 32 0 17 2 24 4 14 3 -9 8 -15 13
-12z m657 9 c2 -5 -13 -9 -32 -9 -29 0 -33 2 -20 12 18 12 47 11 52 -3z m3163
-4 c0 -5 -5 -10 -11 -10 -5 0 -7 5 -4 10 3 6 8 10 11 10 2 0 4 -4 4 -10z m200
0 c-18 -12 -30 -13 -30 -2 0 4 10 9 22 9 18 2 20 0 8 -7z m97 4 c-3 -3 -12 -4
-19 -1 -8 3 -5 6 6 6 11 1 17 -2 13 -5z m667 -5 c3 -3 -4 -5 -14 -6 -11 -1
-22 2 -25 8 -6 9 30 7 39 -2z m-137 -5 c-3 -3 -12 -4 -19 -1 -8 3 -5 6 6 6 11
1 17 -2 13 -5z m32 -32 c-5 -2 -9 -10 -9 -18 0 -12 -3 -12 -14 -2 -10 10 -11
19 -3 35 9 21 11 21 23 5 7 -9 8 -18 3 -20z m-4489 18 c0 -5 -8 -10 -17 -10
-15 0 -16 2 -3 10 19 12 20 12 20 0z m140 6 c0 -3 -4 -8 -10 -11 -5 -3 -10 -1
-10 4 0 6 5 11 10 11 6 0 10 -2 10 -4z m3797 -18 c-3 -8 -6 -5 -6 6 -1 11 2
17 5 13 3 -3 4 -12 1 -19z m37 10 c-3 -4 -9 -8 -15 -8 -5 0 -9 4 -9 8 0 5 7 9
15 9 8 0 12 -4 9 -9z m447 -21 c19 5 27 -11 9 -22 -14 -9 -58 5 -64 20 -3 9 0
12 10 8 9 -3 14 2 15 13 1 15 3 15 6 -2 3 -16 9 -20 24 -17z m-4034 17 c-3 -3
-12 -4 -19 -1 -8 3 -5 6 6 6 11 1 17 -2 13 -5z m-522 -14 c-3 -5 -12 -10 -18
-10 -7 0 -6 4 3 10 19 12 23 12 15 0z m355 0 c0 -5 -5 -10 -11 -10 -5 0 -7 5
-4 10 3 6 8 10 11 10 2 0 4 -4 4 -10z m3995 -20 c3 -5 1 -10 -4 -10 -6 0 -11
5 -11 10 0 6 2 10 4 10 3 0 8 -4 11 -10z m-1765 -39 c0 -5 -7 -11 -15 -15 -15
-5 -20 5 -8 17 9 10 23 9 23 -2z m-340 -111 c-24 -15 -36 -11 -14 4 10 8 21
12 24 10 2 -3 -2 -9 -10 -14z m-838 -472 c-7 -7 -12 -8 -12 -2 0 6 3 14 7 17
3 4 9 5 12 2 2 -3 -1 -11 -7 -17z m58 -14 c-26 -40 -20 -59 5 -20 20 30 39 35
31 8 -4 -10 0 -40 9 -67 16 -55 11 -99 -11 -91 -8 3 -14 0 -14 -7 0 -7 -5 -4
-11 6 -5 9 -14 17 -19 17 -6 0 -10 -8 -10 -17 0 -15 -2 -16 -10 -3 -6 10 -6
16 0 18 6 2 10 8 10 13 0 6 -4 8 -9 4 -5 -3 -13 0 -17 6 -5 8 -3 9 6 4 9 -6
10 0 4 26 -16 70 -10 98 21 119 17 10 31 19 33 19 2 1 -6 -15 -18 -35z m1172
-56 c3 -7 2 -24 -2 -38 l-6 -25 -8 23 c-9 26 -26 30 -24 5 1 -10 0 -27 -1 -38
-2 -18 -3 -18 -12 4 -8 19 -12 21 -24 11 -8 -7 -15 -19 -15 -27 0 -13 -3 -13
-15 -3 -12 10 -15 10 -15 -2 0 -9 -9 -14 -22 -13 -13 1 -29 -4 -36 -12 -18
-18 -30 -16 -35 5 -3 12 -5 9 -6 -7 -1 -19 -4 -22 -12 -14 -9 9 -16 8 -27 -3
-12 -13 -16 -13 -23 -2 -7 10 -9 10 -9 0 0 -8 -11 -11 -35 -9 -19 3 -35 0 -35
-5 0 -5 -4 -7 -9 -3 -5 3 -12 1 -15 -4 -7 -10 -25 -9 -43 2 -6 4 -14 3 -18 -3
-9 -14 -35 14 -34 37 0 16 1 16 9 -2 5 -11 9 -14 9 -6 1 8 7 11 17 7 9 -4 23
-1 31 5 8 7 29 13 48 14 18 0 40 7 49 14 9 8 19 11 23 8 3 -4 12 -2 19 3 6 6
16 9 20 8 5 -2 10 2 12 7 2 6 14 16 28 23 20 11 28 11 40 1 12 -10 13 -9 7 6
-5 14 -3 17 10 12 9 -3 20 0 24 8 7 12 32 17 109 23 12 1 24 -4 26 -10z m-514
-104 c16 -5 22 -13 20 -28 -2 -16 -10 -21 -36 -22 -39 -1 -60 19 -42 41 14 16
23 18 58 9z"/>
<path d="M3225 5000 c3 -5 8 -10 11 -10 2 0 4 5 4 10 0 6 -5 10 -11 10 -5 0
-7 -4 -4 -10z"/>
<path d="M4435 3269 c-4 -6 -5 -12 -2 -15 2 -3 7 2 10 11 7 17 1 20 -8 4z"/>
<path d="M4345 3150 c3 -5 8 -10 11 -10 2 0 4 5 4 10 0 6 -5 10 -11 10 -5 0
-7 -4 -4 -10z"/>
<path d="M4316 3122 c-3 -5 1 -9 9 -9 8 0 12 4 9 9 -3 4 -7 8 -9 8 -2 0 -6 -4
-9 -8z"/>
<path d="M1880 3349 c0 -5 5 -7 10 -4 6 3 10 8 10 11 0 2 -4 4 -10 4 -5 0 -10
-5 -10 -11z"/>
<path d="M1446 2725 c4 -8 8 -15 10 -15 2 0 4 7 4 15 0 8 -4 15 -10 15 -5 0
-7 -7 -4 -15z"/>
<path d="M2917 1730 c3 -11 9 -17 15 -14 5 3 4 12 -3 20 -16 19 -18 18 -12 -6z"/>
<path d="M2888 4623 c7 -3 16 -2 19 1 4 3 -2 6 -13 5 -11 0 -14 -3 -6 -6z"/>
<path d="M2828 4613 c6 -2 18 -2 25 0 6 3 1 5 -13 5 -14 0 -19 -2 -12 -5z"/>
<path d="M3078 4613 c7 -3 16 -2 19 1 4 3 -2 6 -13 5 -11 0 -14 -3 -6 -6z"/>
<path d="M2745 4600 c-14 -7 -8 -8 20 -3 22 3 42 7 44 9 9 8 -45 2 -64 -6z"/>
<path d="M3143 4603 c9 -2 23 -2 30 0 6 3 -1 5 -18 5 -16 0 -22 -2 -12 -5z"/>
<path d="M3223 4593 c9 -2 23 -2 30 0 6 3 -1 5 -18 5 -16 0 -22 -2 -12 -5z"/>
<path d="M3458 4553 c6 -2 18 -2 25 0 6 3 1 5 -13 5 -14 0 -19 -2 -12 -5z"/>
<path d="M3675 4460 c3 -5 8 -10 11 -10 2 0 4 5 4 10 0 6 -5 10 -11 10 -5 0
-7 -4 -4 -10z"/>
<path d="M2080 3966 c0 -2 7 -7 16 -10 8 -3 12 -2 9 4 -6 10 -25 14 -25 6z"/>
<path d="M3685 3569 c-11 -16 -1 -19 13 -3 7 8 8 14 3 14 -5 0 -13 -5 -16 -11z"/>
<path d="M2600 3497 c-12 -21 -12 -21 6 -7 10 8 20 15 22 16 2 1 -1 4 -5 7 -5
3 -15 -4 -23 -16z"/>
<path d="M178 2484 c-4 -4 -5 -11 -2 -15 7 -13 34 -11 34 2 0 5 -4 8 -9 5 -5
-4 -11 -1 -13 5 -2 5 -7 7 -10 3z"/>
<path d="M235 2470 c-9 -15 3 -29 25 -27 10 1 17 5 14 9 -3 4 -12 4 -22 1 -13
-4 -13 -2 3 10 17 14 18 16 3 17 -9 0 -20 -4 -23 -10z"/>
<path d="M4026 2439 c-4 -23 -5 -44 -2 -46 2 -2 7 14 11 37 4 23 5 43 2 46 -2
3 -7 -14 -11 -37z"/>
<path d="M4560 2464 c0 -16 -2 -17 -10 -4 -9 13 -14 7 -11 -12 0 -5 -4 -8 -11
-8 -6 0 -8 -3 -5 -6 4 -4 18 1 32 10 16 10 25 12 25 5 0 -8 4 -9 13 0 8 6 17
8 20 4 4 -3 -1 -12 -11 -20 -9 -8 -11 -12 -4 -8 7 4 12 -1 12 -11 0 -30 12 -7
16 30 3 37 -4 44 -24 24 -8 -8 -15 -8 -27 2 -13 10 -15 9 -15 -6z"/>
<path d="M770 2460 c-11 -7 -11 -10 -2 -10 7 0 11 -4 8 -8 -2 -4 -1 -14 5 -22
6 -11 9 -6 9 18 0 36 1 35 -20 22z"/>
<path d="M4245 2460 c-11 -5 -14 -9 -7 -9 7 -1 10 -5 7 -11 -10 -17 0 -11 18
10 18 21 14 24 -18 10z"/>
<path d="M4372 2458 c2 -5 8 -9 13 -9 5 0 11 4 13 9 1 5 -4 9 -13 9 -9 0 -14
-4 -13 -9z"/>
<path d="M4127 2444 c6 -15 23 -19 23 -5 0 5 -7 11 -14 14 -10 4 -13 1 -9 -9z"/>
<path d="M4793 2453 c-7 -2 -13 -14 -12 -26 0 -12 3 -17 5 -10 3 7 13 9 22 6
15 -4 15 -3 2 6 -13 10 -13 12 0 21 16 10 4 12 -17 3z"/>
<path d="M10 2430 c-8 -5 -13 -10 -10 -11 3 0 13 -2 22 -4 11 -2 15 2 11 11
-6 16 -4 16 -23 4z"/>
<path d="M4395 2429 c-4 -6 -5 -12 -2 -15 2 -3 7 2 10 11 7 17 1 20 -8 4z"/>
<path d="M5074 2419 c-3 -6 -2 -15 3 -20 5 -5 9 -1 9 11 0 23 -2 24 -12 9z"/>
<path d="M2625 2410 c-3 -5 -2 -10 4 -10 5 0 13 5 16 10 3 6 2 10 -4 10 -5 0
-13 -4 -16 -10z"/>
<path d="M4120 2409 c0 -5 5 -7 10 -4 6 3 10 8 10 11 0 2 -4 4 -10 4 -5 0 -10
-5 -10 -11z"/>
<path d="M4230 2410 c-9 -6 -10 -10 -3 -10 6 0 15 5 18 10 8 12 4 12 -15 0z"/>
<path d="M4545 2410 c-16 -7 -17 -9 -3 -9 9 -1 20 4 23 9 7 11 7 11 -20 0z"/>
<path d="M4951 2387 c-13 -21 -12 -21 5 -5 10 10 16 20 13 22 -3 3 -11 -5 -18
-17z"/>
<path d="M853 2385 c-7 -8 -9 -16 -4 -19 5 -3 12 1 15 10 8 22 4 25 -11 9z"/>
<path d="M4617 2379 c7 -7 15 -10 18 -7 3 3 -2 9 -12 12 -14 6 -15 5 -6 -5z"/>
<path d="M4011 2364 c0 -11 3 -14 6 -6 3 7 2 16 -1 19 -3 4 -6 -2 -5 -13z"/>
<path d="M4695 2370 c-3 -5 -1 -10 4 -10 6 0 11 5 11 10 0 6 -2 10 -4 10 -3 0
-8 -4 -11 -10z"/>
<path d="M3816 1738 c-3 -13 -6 -51 -6 -86 0 -52 4 -68 28 -100 30 -42 81
-150 135 -282 63 -156 79 -218 84 -330 5 -120 -4 -253 -18 -244 -5 3 -9 -2 -9
-11 0 -10 5 -13 12 -9 6 4 9 3 6 -2 -20 -33 -51 -112 -55 -143 -4 -20 -19 -67
-35 -105 -15 -38 -28 -74 -28 -80 0 -31 -107 -271 -138 -307 l-34 -40 113 3
113 3 8 40 c12 69 16 83 28 105 6 12 10 26 7 33 -2 6 2 18 10 25 7 8 10 18 7
23 -3 6 0 18 8 27 8 9 19 29 26 44 9 23 9 26 -3 22 -12 -5 -13 -1 -4 25 6 17
15 33 20 36 4 3 5 13 2 21 -8 21 14 60 41 71 29 13 59 5 52 -13 -3 -8 1 -17 8
-20 8 -3 12 -14 9 -25 -5 -18 6 -24 31 -20 5 1 6 -5 3 -14 -4 -8 -2 -15 3 -15
6 0 10 -9 10 -20 0 -20 32 -60 49 -60 5 0 15 -13 22 -29 7 -16 18 -27 25 -24
18 7 55 -58 42 -74 -6 -7 -7 -13 -4 -13 4 0 -4 -11 -16 -23 -23 -24 -23 -24
-30 -3 -5 18 -6 17 -7 -7 -1 -29 -24 -61 -35 -50 -3 4 -6 1 -6 -6 0 -7 -4 -9
-10 -6 -5 3 -10 -1 -10 -9 0 -9 -4 -16 -10 -16 -5 0 -10 -7 -10 -15 0 -13 55
-15 435 -15 l435 0 0 29 c0 29 -25 50 -34 28 -3 -8 -10 -6 -20 7 -15 19 -16
19 -17 -10 -1 -29 -1 -29 -20 11 -14 31 -19 35 -19 17 0 -21 -1 -22 -33 -9
-17 8 -40 13 -50 11 -9 -1 -17 1 -17 6 0 4 -9 10 -20 13 -12 3 -18 1 -14 -5 4
-6 -2 -5 -14 1 -12 6 -25 10 -29 9 -9 -3 -13 5 -13 25 0 8 4 7 10 -3 6 -9 10
-10 10 -3 0 22 -19 24 -30 3 -13 -24 -35 -26 -44 -4 -4 9 -13 14 -21 10 -8 -3
-15 -2 -15 3 0 5 -6 9 -12 8 -33 -1 -58 4 -57 11 1 4 0 18 -1 32 -2 18 -4 20
-7 8 -5 -20 -5 -20 -46 -22 -19 -1 -26 2 -23 11 3 7 0 15 -6 19 -7 4 -8 3 -4
-4 4 -7 2 -12 -3 -12 -6 0 -11 5 -11 12 0 6 -7 3 -15 -8 -14 -18 -14 -18 -16
11 -1 17 -3 23 -6 13 -4 -17 -33 -34 -33 -19 0 5 -8 8 -17 7 -10 0 -19 8 -21
19 -5 25 -24 38 -34 22 -5 -8 -8 -6 -8 6 0 10 -4 15 -10 12 -5 -3 -10 -1 -10
6 0 7 -3 10 -6 7 -9 -9 -54 38 -54 56 0 10 -4 14 -10 11 -6 -3 -10 5 -10 19 0
16 -7 27 -20 31 -11 4 -20 15 -20 26 0 11 -7 22 -15 25 -10 4 -13 14 -9 29 3
13 0 26 -7 30 -8 6 -10 4 -4 -5 5 -9 4 -11 -3 -6 -7 4 -12 19 -13 34 0 29 -17
77 -18 53 -1 -8 -4 -12 -7 -8 -3 3 -2 12 2 19 13 21 13 37 -1 32 -9 -4 -12 11
-11 58 1 35 6 69 10 77 7 11 5 13 -6 9 -11 -5 -14 0 -10 18 2 13 8 22 12 19 5
-3 6 4 3 15 -3 11 -9 17 -14 14 -16 -9 -10 13 7 27 14 12 14 14 -1 25 -14 10
-14 16 -5 34 8 15 8 20 1 16 -6 -4 -11 -4 -12 1 -5 67 -28 173 -40 188 -4 6
-9 34 -11 62 -2 28 -5 49 -7 47 -3 -2 -11 15 -18 38 -16 47 -38 103 -53 130
-6 10 -10 27 -10 38 0 11 -4 20 -10 20 -5 0 -10 13 -10 28 0 16 -3 32 -7 36
-5 4 -8 18 -8 29 0 12 -5 21 -12 20 -6 -2 -21 21 -32 50 -11 28 -20 43 -21 32
0 -16 -2 -17 -9 -5 -6 8 -7 18 -5 22 3 4 -2 8 -10 8 -12 0 -13 5 -7 22 6 18 3
27 -16 42 -21 16 -26 17 -34 5 -6 -10 -9 -10 -9 -1 0 21 -17 13 -24 -10z m174
-178 c0 -5 -5 -10 -11 -10 -5 0 -7 5 -4 10 3 6 8 10 11 10 2 0 4 -4 4 -10z"/>
<path d="M3806 1410 c-9 -167 -28 -277 -60 -355 -36 -89 -228 -472 -304 -609
-56 -101 -85 -138 -182 -239 -63 -66 -141 -140 -174 -164 l-58 -43 111 0 c82
0 111 3 111 13 0 8 4 7 10 -3 8 -12 10 -11 10 8 0 12 13 43 30 70 36 57 40 51
5 -9 -43 -76 -27 -66 20 11 25 41 43 81 40 88 -3 7 -1 10 4 7 11 -6 147 220
254 422 224 426 271 631 203 888 l-13 50 -7 -135z m-231 -870 c-9 -16 -18 -30
-21 -30 -2 0 2 14 11 30 9 17 18 30 21 30 2 0 -2 -13 -11 -30z m-75 -130 c-6
-11 -13 -20 -16 -20 -2 0 0 9 6 20 6 11 13 20 16 20 2 0 0 -9 -6 -20z m-50
-87 c-18 -32 -37 -62 -43 -68 -6 -5 1 10 15 35 14 25 31 55 37 68 6 12 14 22
17 22 3 0 -9 -26 -26 -57z"/>
<path d="M4170 1000 c0 -5 5 -10 11 -10 5 0 7 5 4 10 -3 6 -8 10 -11 10 -2 0
-4 -4 -4 -10z"/>
<path d="M2450 980 c-8 -5 -10 -10 -5 -10 6 0 17 5 25 10 8 5 11 10 5 10 -5 0
-17 -5 -25 -10z"/>
<path d="M4750 779 c0 -5 5 -7 10 -4 6 3 10 8 10 11 0 2 -4 4 -10 4 -5 0 -10
-5 -10 -11z"/>
<path d="M4769 763 c-13 -16 -12 -17 4 -4 16 13 21 21 13 21 -2 0 -10 -8 -17
-17z"/>
<path d="M4789 758 c-5 -9 -5 -48 -1 -43 6 6 11 45 5 45 -2 0 -4 -1 -4 -2z"/>
<path d="M4799 699 l-22 -32 26 18 c14 9 30 14 36 11 5 -3 11 0 14 8 4 10 -1
12 -16 9 -18 -4 -19 -3 -7 6 9 6 10 11 3 11 -6 0 -22 -14 -34 -31z"/>
<path d="M4851 636 c-8 -14 -11 -29 -8 -33 4 -3 7 1 7 10 0 8 5 17 12 19 6 2
9 10 7 17 -3 8 -10 3 -18 -13z"/>
<path d="M4875 604 c-9 -14 -15 -27 -13 -30 2 -2 12 10 22 26 21 37 15 40 -9
4z"/>
<path d="M4900 559 c-19 -17 -27 -26 -18 -19 9 6 23 8 30 4 7 -4 10 -3 5 1 -4
5 0 17 10 27 25 28 11 21 -27 -13z"/>
<path d="M4936 544 c-9 -8 -16 -21 -16 -27 0 -7 4 -6 10 3 9 13 11 13 19 1 7
-10 9 -7 8 12 -2 32 -1 31 -21 11z"/>
<path d="M4966 505 c-9 -14 -20 -24 -24 -21 -4 2 -8 -4 -8 -15 0 -10 1 -19 3
-19 7 0 55 71 51 76 -3 2 -13 -7 -22 -21z"/>
<path d="M191 474 c0 -11 3 -14 6 -6 3 7 2 16 -1 19 -3 4 -6 -2 -5 -13z"/>
<path d="M5014 479 c-3 -6 -2 -15 3 -20 5 -5 9 -1 10 11 2 22 -2 25 -13 9z"/>
<path d="M90 445 c0 -5 5 -17 10 -25 5 -8 10 -10 10 -5 0 6 -5 17 -10 25 -5 8
-10 11 -10 5z"/>
<path d="M4165 410 c3 -5 8 -10 11 -10 2 0 4 5 4 10 0 6 -5 10 -11 10 -5 0 -7
-4 -4 -10z"/>
<path d="M5042 400 c0 -14 2 -19 5 -12 2 6 2 18 0 25 -3 6 -5 1 -5 -13z"/>
<path d="M4983 385 c-3 -9 -3 -18 -1 -21 3 -3 8 4 11 16 6 23 -1 27 -10 5z"/>
<path d="M4136 363 c-6 -14 -5 -15 5 -6 7 7 10 15 7 18 -3 3 -9 -2 -12 -12z"/>
<path d="M5035 321 c-3 -5 -2 -12 3 -15 5 -3 9 1 9 9 0 17 -3 19 -12 6z"/>
<path d="M5003 290 c-11 -16 -10 -18 2 -14 8 4 15 12 15 20 0 19 -3 18 -17 -6z"/>
<path d="M5051 236 c-6 -16 -10 -31 -7 -33 7 -8 28 37 23 50 -3 7 -10 -1 -16
-17z"/>
<path d="M4311 204 c0 -11 3 -14 6 -6 3 7 2 16 -1 19 -3 4 -6 -2 -5 -13z"/>
<path d="M5100 190 c-9 -6 -10 -10 -3 -10 6 0 15 5 18 10 8 12 4 12 -15 0z"/>
<path d="M416 170 c-7 -17 -56 -24 -56 -7 0 5 -8 2 -19 -7 -17 -15 -20 -15
-34 -2 -13 14 -15 13 -20 -6 -5 -16 -11 -19 -31 -14 -15 4 -26 1 -28 -6 -5
-14 -48 -22 -48 -8 0 6 -4 10 -10 10 -5 0 -10 -6 -10 -14 0 -7 -9 -16 -20 -19
-11 -3 -20 -2 -20 3 0 4 -7 11 -16 14 -12 4 -15 2 -10 -9 3 -8 1 -15 -4 -15
-6 0 -10 8 -11 18 0 12 -3 11 -10 -7 -6 -15 -15 -21 -24 -17 -8 3 -15 1 -15
-4 0 -5 -7 -7 -15 -4 -12 5 -15 -3 -15 -35 l0 -41 338 0 338 0 18 36 c16 34
18 35 35 20 16 -15 20 -13 50 18 22 22 31 40 27 51 -4 13 -10 14 -26 5 -12 -7
-18 -16 -13 -23 4 -7 -1 -6 -11 2 -15 13 -18 12 -22 -6 -3 -12 -15 -21 -27
-22 -12 -1 -38 -3 -57 -4 -19 -1 -38 -6 -42 -11 -4 -6 -10 2 -13 17 -8 29 -20
35 -28 15 -3 -8 -6 -5 -6 6 -1 12 -6 16 -16 12 -9 -3 -15 0 -15 9 0 8 -8 12
-20 10 -11 -2 -20 0 -20 6 0 5 -10 9 -21 9 -12 0 -28 8 -35 18 -11 14 -13 15
-18 2z"/>
<path d="M800 158 c0 -7 7 -22 16 -33 12 -17 16 -18 24 -5 10 17 6 26 -21 40
-14 8 -19 7 -19 -2z"/>
<path d="M4017 83 c-4 -3 -7 -13 -7 -22 1 -13 3 -13 11 2 11 19 8 33 -4 20z"/>
</g>
</svg>
