<?xml version="1.0" standalone="no"?>
<!DOCTYPE svg PUBLIC "-//W3C//DTD SVG 20010904//EN"
 "http://www.w3.org/TR/2001/REC-SVG-20010904/DTD/svg10.dtd">
<svg version="1.0" xmlns="http://www.w3.org/2000/svg"
 width="512.000000pt" height="512.000000pt" viewBox="0 0 512.000000 512.000000"
 preserveAspectRatio="xMidYMid meet">
<metadata>
Created by potrace 1.14, written by Peter Selinger 2001-2017
</metadata>
<g transform="translate(0.000000,512.000000) scale(0.100000,-0.100000)"
fill="#000000" stroke="none">
<path d="M0 2560 l0 -2560 2560 0 2560 0 0 2560 0 2560 -2560 0 -2560 0 0
-2560z m2787 1975 c298 -60 621 -255 808 -488 254 -315 351 -701 280 -1111
-79 -450 -422 -839 -880 -994 -130 -45 -246 -62 -409 -62 -283 0 -509 61 -706
191 -91 60 -91 57 -30 176 46 89 97 216 105 261 3 17 10 44 16 59 6 15 10 28
9 28 -1 0 1 7 3 15 19 63 31 107 32 120 1 8 5 22 8 30 13 29 35 153 30 167 -3
7 -1 19 5 26 14 18 14 360 -1 369 -9 6 -9 8 1 8 8 0 10 5 5 13 -8 13 -14 48
-13 85 0 12 -5 22 -11 22 -6 0 -9 8 -7 18 3 10 -1 23 -8 30 -7 7 -11 19 -8 27
4 8 2 15 -3 15 -6 0 -15 12 -21 26 -10 20 -9 24 0 18 7 -4 2 7 -11 24 -12 18
-27 32 -32 32 -6 0 -8 4 -5 8 5 9 -33 53 -73 85 -13 10 -20 24 -17 32 3 8 -5
16 -20 19 -13 4 -23 12 -21 19 1 7 -8 11 -24 9 -23 -3 -26 0 -23 23 2 20 -1
25 -12 21 -9 -4 -18 3 -24 19 -6 15 -15 23 -23 19 -8 -3 -20 3 -28 12 -12 16
-12 17 1 9 12 -7 13 -6 3 7 -7 8 -10 18 -6 21 3 4 -1 7 -10 7 -12 0 -17 9 -17
31 0 16 -4 28 -9 25 -5 -4 -8 2 -7 11 2 9 8 19 14 21 7 2 12 14 12 27 0 13 5
27 10 30 6 4 7 12 4 18 -4 7 -4 9 1 5 8 -7 75 84 75 102 0 6 5 8 10 5 6 -3 10
1 10 9 0 18 -16 21 -25 6 -3 -5 -11 -10 -17 -10 -6 0 1 9 14 20 14 11 35 18
46 15 12 -2 23 3 26 11 4 12 2 12 -14 4 -44 -24 -15 8 43 47 293 196 632 270
944 208z m-1068 -318 c-2 -1 -13 -9 -24 -17 -19 -14 -19 -14 -6 3 7 9 18 17
24 17 6 0 8 -1 6 -3z m-139 -130 c0 -2 -15 -16 -32 -33 l-33 -29 29 33 c28 30
36 37 36 29z m1235 -2608 c515 -45 983 -230 1328 -524 131 -112 253 -286 272
-388 l7 -37 -1413 1 c-778 1 -1461 5 -1519 9 -58 3 -95 7 -82 8 13 1 20 6 17
12 -4 6 -1 52 6 103 26 203 14 369 -34 461 -11 23 -20 45 -19 50 2 5 -6 6 -18
3 -32 -8 -23 8 18 30 20 12 53 30 72 40 63 35 233 100 340 132 185 53 330 78
610 104 82 8 304 6 415 -4z"/>
</g>
</svg>
